<svg width="36" height="36" viewBox="0 0 36 36" fill="none" xmlns="http://www.w3.org/2000/svg">
<path d="M18 0C16.5964 0 15.2303 0.160642 13.9197 0.465194C7.25502 2.00937 2.00937 7.25502 0.465194 13.919C0.160642 15.2303 0 16.5964 0 18C0 27.9411 8.0589 36 18 36C19.4036 36 20.7697 35.8394 22.081 35.5348C28.745 33.9906 33.9906 28.7456 35.5355 22.0823C35.84 20.7711 36.0007 19.4043 36.0007 18C36.0007 8.0589 27.9411 0 18 0ZM18 29.2724C16.6714 29.2724 15.3969 29.0428 14.2135 28.6205C11.0341 27.4866 8.51406 24.9665 7.38019 21.7871C6.95783 20.6037 6.72825 19.3286 6.72825 18C6.72825 11.7744 11.7744 6.72758 18 6.72758C19.3286 6.72758 20.6031 6.95716 21.7865 7.37952C24.9659 8.51339 27.4866 11.0335 28.6205 14.2129C29.0428 15.3963 29.2724 16.6714 29.2724 18C29.2724 24.2256 24.2256 29.2724 18 29.2724Z" fill="url(#paint0_linear_84_235)"/>
<path d="M18 10.7349C13.9879 10.7349 10.7349 13.9879 10.7349 17.9999C10.7349 22.012 13.9879 25.265 18 25.265C22.012 25.265 25.265 22.012 25.265 17.9999C25.265 13.9879 22.0127 10.7349 18 10.7349ZM18 22.3928C15.5743 22.3928 13.6071 20.4263 13.6071 17.9999C13.6071 15.5736 15.5743 13.607 18 13.607C20.4257 13.607 22.3929 15.5736 22.3929 17.9999C22.3929 20.4263 20.4264 22.3928 18 22.3928Z" fill="#FEFCFE"/>
<path d="M21.7865 7.37966C20.6031 6.9573 19.3286 6.72772 18 6.72772C11.7744 6.72772 6.72823 11.7746 6.72823 18.0001C6.72823 19.3288 6.95782 20.6039 7.38017 21.7873C5.94175 21.2438 4.59302 20.393 3.43506 19.2351C1.91565 17.7157 0.925688 15.8676 0.465179 13.9191C2.00936 7.25516 7.25501 2.00951 13.9197 0.465332C15.8675 0.925841 17.7155 1.9158 19.2349 3.43521C20.3922 4.59251 21.243 5.94124 21.7865 7.37966Z" fill="url(#paint1_linear_84_235)"/>
<path d="M35.5355 22.0824C33.9906 28.7457 28.745 33.9907 22.081 35.5348C20.1332 35.0743 18.2851 34.0844 16.7657 32.565C15.6077 31.407 14.757 30.0583 14.2135 28.6205C15.3969 29.0429 16.6713 29.2725 18 29.2725C24.2255 29.2725 29.2724 24.2256 29.2724 18C29.2724 16.6714 29.0428 15.3963 28.6205 14.2129C30.0582 14.7564 31.4069 15.6071 32.5649 16.7651C34.0843 18.2845 35.0749 20.1339 35.5355 22.0824Z" fill="url(#paint2_linear_84_235)"/>
<path d="M9.09638 30.6713C11.1769 30.6713 12.8635 28.9848 12.8635 26.9043C12.8635 24.8238 11.1769 23.1372 9.09638 23.1372C7.01589 23.1372 5.32932 24.8238 5.32932 26.9043C5.32932 28.9848 7.01589 30.6713 9.09638 30.6713Z" fill="url(#paint3_linear_84_235)"/>
<path d="M26.9371 12.8305C29.0176 12.8305 30.7041 11.1439 30.7041 9.06346C30.7041 6.98296 29.0176 5.29639 26.9371 5.29639C24.8566 5.29639 23.17 6.98296 23.17 9.06346C23.17 11.1439 24.8566 12.8305 26.9371 12.8305Z" fill="url(#paint4_linear_84_235)"/>
<defs>
<linearGradient id="paint0_linear_84_235" x1="30.5556" y1="6.13588" x2="5.83534" y2="29.4953" gradientUnits="userSpaceOnUse">
<stop stop-color="#F38856"/>
<stop offset="0.23" stop-color="#F0625C"/>
<stop offset="1" stop-color="#5C3DAB"/>
</linearGradient>
<linearGradient id="paint1_linear_84_235" x1="16.8608" y1="3.05168" x2="2.79985" y2="17.037" gradientUnits="userSpaceOnUse">
<stop stop-color="#F67986"/>
<stop offset="1" stop-color="#8951BA"/>
</linearGradient>
<linearGradient id="paint2_linear_84_235" x1="32.9424" y1="19.2196" x2="18.8815" y2="33.2055" gradientUnits="userSpaceOnUse">
<stop stop-color="#F67986"/>
<stop offset="1" stop-color="#8951BA"/>
</linearGradient>
<linearGradient id="paint3_linear_84_235" x1="11.8467" y1="24.3306" x2="6.34538" y2="29.4779" gradientUnits="userSpaceOnUse">
<stop stop-color="#A267B9"/>
<stop offset="1" stop-color="#704BB4"/>
</linearGradient>
<linearGradient id="paint4_linear_84_235" x1="29.2269" y1="6.92022" x2="25.4712" y2="10.4349" gradientUnits="userSpaceOnUse">
<stop stop-color="#F7A8A5"/>
<stop offset="0.97" stop-color="#D074C4"/>
<stop offset="1" stop-color="#CF76A9"/>
</linearGradient>
</defs>
</svg>
